<svg version="1.1" preserveAspectRatio="none" xmlns="http://www.w3.org/2000/svg" width="500" height="500" viewBox="0 0 500 500"><rect width="100%" height="100%" fill="#F5F5F5" fill-opacity="1"/><svg viewBox="-13.4363 94.1402 300.3904 150" width="333" height="166.28360959604566" x="83.5px" y="166.8582px" xmlns="http://www.w3.org/2000/svg" xmlns:xlink="http://www.w3.org/1999/xlink" preserveAspectRatio="none"><defs></defs><style>.companyName {fill:#08376B;fill-opacity:1;}.icon1 {fill:#35C0ED;fill-opacity:1;}.icon2 {fill:#9AEBA6;fill-opacity:1;}.icon3 {fill:#2F90B0;fill-opacity:1;}.icon3-str {stroke:#2F90B0;stroke-opacity:1;}.shapeStroke-str {stroke:#08376B;stroke-opacity:1;}</style><g opacity="1" transform="rotate(0 -13.4363 109.1402)">
<svg width="120" height="120" x="-13.4363" y="109.1402" version="1.1" preserveAspectRatio="none" viewBox="0 0 80 80">
  <g transform="matrix(1 0 0 1 0 0)" class="icon1"><g transform="translate(0,-972.36214)"><path style="" d="M 40 0 A 40 40 0 0 0 0 40 A 40 40 0 0 0 40 80 A 40 40 0 0 0 80 40 A 40 40 0 0 0 40 0 z M 41.5 16 C 42.322505 16 43 16.67749 43 17.5 C 43 18.14684 42.579028 18.69777 42 18.90625 L 42 21.236328 L 38.986328 23.736328 L 38.996094 32 L 41.001953 32 L 41.027344 24.744141 L 45.025391 21.75 C 45.011191 21.66779 45 21.586 45 21.5 C 45 20.6775 45.677495 20 46.5 20 C 47.322505 20 48 20.6775 48 21.5 C 48 22.3225 47.322505 23 46.5 23 C 46.127158 23 45.789041 22.85383 45.525391 22.625 L 42.027344 25.246094 L 42.001953 32 L 45 32 L 45 26.259766 L 50 22.259766 L 50 19.90625 C 49.420985 19.69777 49.000026 19.14681 49 18.5 C 49 17.67749 49.677495 17 50.5 17 C 51.322505 17 52 17.67749 52 18.5 C 51.999974 19.14681 51.579015 19.69777 51 19.90625 L 51 22.740234 L 46 26.740234 L 46 32 L 48 32 L 48 27.650391 L 52.013672 24.638672 C 52.009202 24.592102 52 24.5477 52 24.5 C 52 23.6775 52.677495 23 53.5 23 C 54.322505 23 55 23.6775 55 24.5 C 55 25.3225 54.322505 26 53.5 26 C 53.092651 26 52.720749 25.832123 52.449219 25.564453 L 49 28.150391 L 49 32 L 57.5 32 C 58.876351 32 60 33.1237 60 34.5 L 60 57 L 63.5 57 A 0.50005 0.50005 0 0 1 64 57.5 L 64 59.5 C 64 61.4304 62.430351 63 60.5 63 L 19.5 63 C 17.569649 63 16 61.4304 16 59.5 L 16 57.5 A 0.50005 0.50005 0 0 1 16.5 57 L 20 57 L 20 34.5 C 20 33.1237 21.123649 32 22.5 32 L 30.5 32 L 30.5 28.150391 L 27.308594 25.757812 C 27.074356 25.909703 26.797249 26 26.5 26 C 25.677495 26 25 25.3225 25 24.5 C 25 23.6775 25.677495 23 26.5 23 C 27.322505 23 28 23.6775 28 24.5 C 28 24.66274 27.966859 24.815631 27.917969 24.962891 L 31.5 27.650391 L 31.5 32 L 34 32 L 34 26.740234 L 29 22.740234 L 29 19.90625 C 28.420985 19.69777 28.000026 19.14681 28 18.5 C 28 17.67749 28.677495 17 29.5 17 C 30.322505 17 31 17.67749 31 18.5 C 30.999974 19.14681 30.579015 19.69777 30 19.90625 L 30 22.259766 L 35 26.259766 L 35 32 L 37.996094 32 L 37.986328 23.267578 L 41 20.767578 L 41 18.90625 C 40.420972 18.69777 40 18.14684 40 17.5 C 40 16.67749 40.677495 16 41.5 16 z M 41.5 17 C 41.217935 17 41 17.21793 41 17.5 C 41 17.78206 41.217935 18 41.5 18 C 41.782065 18 42 17.78206 42 17.5 C 42 17.21793 41.782065 17 41.5 17 z M 29.5 18 C 29.217935 18 29 18.21793 29 18.5 C 29.000011 18.78207 29.217944 19 29.5 19 C 29.782056 19 29.999989 18.78207 30 18.5 C 30 18.21793 29.782065 18 29.5 18 z M 50.5 18 C 50.217935 18 50 18.21793 50 18.5 C 50.000011 18.78207 50.217944 19 50.5 19 C 50.782056 19 50.999989 18.78207 51 18.5 C 51 18.21793 50.782065 18 50.5 18 z M 46.5 21 C 46.217935 21 46 21.218 46 21.5 C 46 21.7821 46.217935 22 46.5 22 C 46.782065 22 47 21.7821 47 21.5 C 47 21.218 46.782065 21 46.5 21 z M 26.5 24 C 26.217935 24 26 24.218 26 24.5 C 26 24.7821 26.217935 25 26.5 25 C 26.782065 25 27 24.7821 27 24.5 C 27 24.218 26.782065 24 26.5 24 z M 53.5 24 C 53.217935 24 53 24.218 53 24.5 C 53 24.7821 53.217935 25 53.5 25 C 53.782065 25 54 24.7821 54 24.5 C 54 24.218 53.782065 24 53.5 24 z M 22.5 33 C 21.660351 33 21 33.6604 21 34.5 L 21 57 L 59 57 L 59 34.5 C 59 33.6604 58.339649 33 57.5 33 L 22.5 33 z M 23.5 35 L 56.5 35 A 0.50005 0.50005 0 0 1 57 35.5 L 57 54.5 A 0.50005 0.50005 0 0 1 56.5 55 L 23.5 55 A 0.50005 0.50005 0 0 1 23 54.5 L 23 35.5 A 0.50005 0.50005 0 0 1 23.5 35 z M 24 36 L 24 54 L 56 54 L 56 36 L 49.041016 36 L 49.041016 38.75 L 52.599609 41.310547 C 52.851722 41.118547 53.161892 41 53.5 41 C 54.322505 41 55 41.6775 55 42.5 C 55 43.3225 54.322505 44 53.5 44 C 52.677495 44 52 43.3225 52 42.5 C 52 42.383 52.017069 42.269756 52.042969 42.160156 L 48 39.25 L 48 36 L 46 36 L 46 40.640625 L 51 44.140625 L 51 47.091797 C 51.579028 47.300297 52 47.8532 52 48.5 C 52 49.3225 51.322505 50 50.5 50 C 49.677495 50 49 49.3225 49 48.5 C 49 47.8532 49.420972 47.300297 50 47.091797 L 50 44.660156 L 45 41.160156 L 45 36 L 42.025391 36 L 42.001953 44.265625 L 45.013672 46.763672 L 45.013672 49.095703 C 45.58581 49.307903 46 49.8582 46 50.5 C 46 51.3225 45.322505 52 44.5 52 C 43.677495 52 43 51.3225 43 50.5 C 43 49.8482 43.42778 49.292591 44.013672 49.087891 L 44.013672 47.234375 L 41 44.734375 L 41.025391 36 L 38.990234 36 L 39 43.759766 L 35.923828 46.054688 C 35.968728 46.196388 36 46.3444 36 46.5 C 36 47.3225 35.322505 48 34.5 48 C 33.677495 48 33 47.3225 33 46.5 C 33 45.6775 33.677495 45 34.5 45 C 34.805348 45 35.089992 45.094406 35.328125 45.253906 L 38 43.257812 L 37.990234 36 L 35 36 L 35 40.740234 L 30 44.740234 L 30 47.091797 C 30.579028 47.300297 31 47.8532 31 48.5 C 31 49.3225 30.322505 50 29.5 50 C 28.677495 50 28 49.3225 28 48.5 C 28 47.8532 28.420972 47.300297 29 47.091797 L 29 44.259766 L 34 40.259766 L 34 36 L 31.5 36 L 31.5 39.351562 L 27.917969 42.037109 C 27.966509 42.183909 28 42.338 28 42.5 C 28 43.3225 27.322505 44 26.5 44 C 25.677495 44 25 43.3225 25 42.5 C 25 41.6775 25.677495 41 26.5 41 C 26.798225 41 27.075831 41.091341 27.310547 41.244141 L 30.5 38.851562 L 30.5 36 L 24 36 z M 26.5 42 C 26.217935 42 26 42.218 26 42.5 C 26 42.7821 26.217935 43 26.5 43 C 26.782065 43 27 42.7821 27 42.5 C 27 42.218 26.782065 42 26.5 42 z M 53.5 42 C 53.217935 42 53 42.218 53 42.5 C 53 42.7821 53.217935 43 53.5 43 C 53.782065 43 54 42.7821 54 42.5 C 54 42.218 53.782065 42 53.5 42 z M 34.5 46 C 34.217935 46 34 46.218 34 46.5 C 34 46.7821 34.217935 47 34.5 47 C 34.782065 47 35 46.7821 35 46.5 C 35 46.218 34.782065 46 34.5 46 z M 29.5 48 C 29.217935 48 29 48.218 29 48.5 C 29 48.7821 29.217935 49 29.5 49 C 29.782065 49 30 48.7821 30 48.5 C 30 48.218 29.782065 48 29.5 48 z M 50.5 48 C 50.217935 48 50 48.218 50 48.5 C 50 48.7821 50.217935 49 50.5 49 C 50.782065 49 51 48.7821 51 48.5 C 51 48.218 50.782065 48 50.5 48 z M 44.5 50 C 44.217935 50 44 50.218 44 50.5 C 44 50.7821 44.217935 51 44.5 51 C 44.782065 51 45 50.7821 45 50.5 C 45 50.218 44.782065 50 44.5 50 z M 46.949219 57.998047 C 46.715328 59.135247 45.704307 59.998047 44.5 59.998047 L 36.5 59.998047 C 35.295693 59.998047 34.284672 59.1371 34.050781 58 L 17 58 L 17 59.498047 C 17 60.891747 18.106351 61.998047 19.5 61.998047 L 60.5 61.998047 C 61.893649 61.998047 63 60.891747 63 59.498047 L 63 57.998047 L 46.949219 57.998047 z M 35.205078 58 C 35.421948 58.5581 35.857311 59 36.5 59 L 44.5 59 C 45.142689 59 45.578052 58.5581 45.794922 58 L 35.205078 58 z " transform="translate(0,972.36214)" fill-rule="evenodd"></path></g></g>
</svg>
</g><g opacity="1" transform="rotate(0 169.5637 109.1402)">
<svg width="117.3904" height="120" x="169.5637" y="109.1402" version="1.1" preserveAspectRatio="none" viewBox="4.8 -28 110.04 112.48">
  <g transform="matrix(1 0 0 1 0 0)" class="companyName"><path id="id-D6z1nYkh11" d="M20.48-28L16.84-28L16.84-7.80Q16.84-6.84 16.78-5.70Q16.72-4.56 16.32-3.58Q15.92-2.60 15.10-1.94Q14.28-1.28 12.76-1.28L12.76-1.28Q11.44-1.28 10.58-1.76Q9.72-2.24 9.22-2.96Q8.72-3.68 8.50-4.50Q8.28-5.32 8.28-5.96L8.28-5.96L4.80-5.96Q4.88-2.88 6.80-1.20Q8.72 0.48 12.56 0.48L12.56 0.48Q15.32 0.48 16.92-0.34Q18.52-1.16 19.30-2.42Q20.08-3.68 20.28-5.16Q20.48-6.64 20.48-7.92L20.48-7.92L20.48-28Z M48-9.96L48-9.96Q48-7.88 47.28-5.98Q46.56-4.08 45.22-2.64Q43.88-1.20 41.98-0.36Q40.08 0.48 37.72 0.48L37.72 0.48Q35.32 0.48 33.38-0.38Q31.44-1.24 30.10-2.68Q28.76-4.12 28.02-6.02Q27.28-7.92 27.28-9.96L27.28-9.96Q27.28-12.04 28.02-13.94Q28.76-15.84 30.10-17.28Q31.44-18.72 33.38-19.58Q35.32-20.44 37.72-20.44L37.72-20.44Q40.08-20.44 41.98-19.58Q43.88-18.72 45.22-17.28Q46.56-15.84 47.28-13.94Q48-12.04 48-9.96ZM44.20-9.96L44.20-9.96Q44.20-12.76 43.60-14.50Q43-16.24 42.04-17.20Q41.08-18.16 39.92-18.50Q38.76-18.84 37.68-18.84L37.68-18.84Q36.60-18.84 35.44-18.50Q34.28-18.16 33.30-17.20Q32.32-16.24 31.70-14.50Q31.08-12.76 31.08-9.96L31.08-9.96Q31.08-7.20 31.70-5.46Q32.32-3.72 33.30-2.76Q34.28-1.80 35.44-1.46Q36.60-1.12 37.68-1.12L37.68-1.12Q38.76-1.12 39.92-1.46Q41.08-1.80 42.04-2.76Q43-3.72 43.60-5.46Q44.20-7.20 44.20-9.96Z M60.56-20.44L60.56-20.44Q63.48-20.44 65.08-19.62Q66.68-18.80 67.42-17.48Q68.16-16.16 68.28-14.44Q68.40-12.72 68.40-10.92L68.40-10.92L68.40 0L65.16 0L65.16-1.96Q64.00-0.84 62.20-0.18Q60.40 0.48 58.60 0.48L58.60 0.48Q56.88 0.48 55.56-0.12Q54.24-0.72 53.36-1.68Q52.48-2.64 52.04-3.84Q51.60-5.04 51.60-6.28L51.60-6.28Q51.60-7.56 52.08-8.84Q52.56-10.12 53.52-11.14Q54.48-12.16 55.88-12.80Q57.28-13.44 59.08-13.44L59.08-13.44Q60.88-13.44 62.50-12.74Q64.12-12.04 65.16-10.76L65.16-10.76L65.16-12.48Q65.16-15.76 64.18-17.36Q63.20-18.96 60.60-18.96L60.60-18.96Q59.48-18.96 58.64-18.68Q57.80-18.40 57.14-17.90Q56.48-17.40 55.92-16.66Q55.36-15.92 54.80-15L54.80-15L52.72-17.08Q53.28-17.68 53.90-18.28Q54.52-18.88 55.42-19.36Q56.32-19.84 57.56-20.14Q58.80-20.44 60.56-20.44ZM65.16-4.84L65.16-7.92Q64.96-8.40 64.58-9.04Q64.20-9.68 63.60-10.28Q63.00-10.88 62.16-11.30Q61.32-11.72 60.16-11.72L60.16-11.72Q59.00-11.72 58.04-11.26Q57.08-10.80 56.42-10.06Q55.76-9.32 55.40-8.32Q55.04-7.32 55.04-6.24L55.04-6.24Q55.04-4.96 55.50-4.02Q55.96-3.08 56.68-2.42Q57.40-1.76 58.28-1.44Q59.16-1.12 59.96-1.12L59.96-1.12Q60.72-1.12 61.50-1.40Q62.28-1.68 62.98-2.18Q63.68-2.68 64.24-3.36Q64.80-4.04 65.16-4.84L65.16-4.84ZM53.36-24.16L54.44-23.56Q54.88-24.32 55.58-24.82Q56.28-25.32 56.96-25.32L56.96-25.32Q57.48-25.32 57.98-25.16Q58.48-25 58.92-24.80L58.92-24.80Q60.36-24.24 61.56-23.80Q62.76-23.36 63.80-23.36L63.80-23.36Q65.20-23.36 66.38-24.30Q67.56-25.24 68.24-27.36L68.24-27.36L67.04-27.92Q66.60-26.88 65.92-26.50Q65.24-26.12 64.56-26.12L64.56-26.12Q64.08-26.12 63.62-26.24Q63.16-26.36 62.80-26.44L62.80-26.44Q61.08-27 59.86-27.50Q58.64-28 57.72-28L57.72-28Q56.20-28 55.06-26.90Q53.92-25.80 53.36-24.16L53.36-24.16Z M94.32-9.96L94.32-9.96Q94.32-7.88 93.60-5.98Q92.88-4.08 91.54-2.64Q90.20-1.20 88.30-0.36Q86.40 0.48 84.04 0.48L84.04 0.48Q81.64 0.48 79.70-0.38Q77.76-1.24 76.42-2.68Q75.08-4.12 74.34-6.02Q73.60-7.92 73.60-9.96L73.60-9.96Q73.60-12.04 74.34-13.94Q75.08-15.84 76.42-17.28Q77.76-18.72 79.70-19.58Q81.64-20.44 84.04-20.44L84.04-20.44Q86.40-20.44 88.30-19.58Q90.20-18.72 91.54-17.28Q92.88-15.84 93.60-13.94Q94.32-12.04 94.32-9.96ZM90.52-9.96L90.52-9.96Q90.52-12.76 89.92-14.50Q89.32-16.24 88.36-17.20Q87.40-18.16 86.24-18.50Q85.08-18.84 84-18.84L84-18.84Q82.92-18.84 81.76-18.50Q80.60-18.16 79.62-17.20Q78.64-16.24 78.02-14.50Q77.40-12.76 77.40-9.96L77.40-9.96Q77.40-7.20 78.02-5.46Q78.64-3.72 79.62-2.76Q80.60-1.80 81.76-1.46Q82.92-1.12 84-1.12L84-1.12Q85.08-1.12 86.24-1.46Q87.40-1.80 88.36-2.76Q89.32-3.72 89.92-5.46Q90.52-7.20 90.52-9.96Z M4.80 14L4.80 42L14.84 42Q17.52 42 19.36 41.30Q21.20 40.60 22.32 39.48Q23.44 38.36 23.94 36.94Q24.44 35.52 24.44 34.08L24.44 34.08Q24.44 31.80 23.46 30.44Q22.48 29.08 21.12 28.36Q19.76 27.64 18.32 27.40Q16.88 27.16 16 27.12L16 27.12L16 26.96Q17.40 26.96 18.64 26.42Q19.88 25.88 20.82 25.02Q21.76 24.16 22.32 23.02Q22.88 21.88 22.88 20.60L22.88 20.60Q22.88 19.48 22.40 18.32Q21.92 17.16 20.94 16.20Q19.96 15.24 18.42 14.62Q16.88 14 14.80 14L14.80 14L4.80 14ZM14.24 40.24L8.44 40.24L8.44 28L12.84 28Q14.80 28 16.24 28.52Q17.68 29.04 18.62 29.92Q19.56 30.80 20.02 31.96Q20.48 33.12 20.48 34.40L20.48 34.40Q20.48 35.80 19.98 36.88Q19.48 37.96 18.64 38.72Q17.80 39.48 16.66 39.86Q15.52 40.24 14.24 40.24L14.24 40.24ZM13.24 26.24L8.44 26.24L8.44 15.76L13.32 15.76Q14.88 15.76 15.98 16.20Q17.08 16.64 17.78 17.36Q18.48 18.08 18.80 19Q19.12 19.92 19.12 20.84L19.12 20.84Q19.12 22 18.66 23Q18.20 24 17.38 24.72Q16.56 25.44 15.50 25.84Q14.44 26.24 13.24 26.24L13.24 26.24Z M49.16 32.04L49.16 32.04Q49.16 34.12 48.44 36.02Q47.72 37.92 46.38 39.36Q45.04 40.80 43.14 41.64Q41.24 42.48 38.88 42.48L38.88 42.48Q36.48 42.48 34.54 41.62Q32.60 40.76 31.26 39.32Q29.92 37.88 29.18 35.98Q28.44 34.08 28.44 32.04L28.44 32.04Q28.44 29.96 29.18 28.06Q29.92 26.16 31.26 24.72Q32.60 23.28 34.54 22.42Q36.48 21.56 38.88 21.56L38.88 21.56Q41.24 21.56 43.14 22.42Q45.04 23.28 46.38 24.72Q47.72 26.16 48.44 28.06Q49.16 29.96 49.16 32.04ZM45.36 32.04L45.36 32.04Q45.36 29.24 44.76 27.50Q44.16 25.76 43.20 24.80Q42.24 23.84 41.08 23.50Q39.92 23.16 38.84 23.16L38.84 23.16Q37.76 23.16 36.60 23.50Q35.44 23.84 34.46 24.80Q33.48 25.76 32.86 27.50Q32.24 29.24 32.24 32.04L32.24 32.04Q32.24 34.80 32.86 36.54Q33.48 38.28 34.46 39.24Q35.44 40.20 36.60 40.54Q37.76 40.88 38.84 40.88L38.84 40.88Q39.92 40.88 41.08 40.54Q42.24 40.20 43.20 39.24Q44.16 38.28 44.76 36.54Q45.36 34.80 45.36 32.04Z M64.84 26.56L67.12 26.56Q67.12 25.48 66.56 24.56Q66 23.64 65.02 22.98Q64.04 22.32 62.74 21.94Q61.44 21.56 59.96 21.56L59.96 21.56Q58.56 21.56 57.34 21.92Q56.12 22.28 55.22 23Q54.32 23.72 53.80 24.78Q53.28 25.84 53.28 27.24L53.28 27.24Q53.28 29.16 54.16 30.28Q55.04 31.40 56.36 32.08Q57.68 32.76 59.22 33.18Q60.76 33.60 62.08 34.10Q63.40 34.60 64.28 35.36Q65.16 36.12 65.16 37.44L65.16 37.44Q65.16 38 64.98 38.60Q64.80 39.20 64.32 39.70Q63.84 40.20 63 40.54Q62.16 40.88 60.88 40.88L60.88 40.88Q59.28 40.88 58.18 40.38Q57.08 39.88 56.38 39.18Q55.68 38.48 55.38 37.76Q55.08 37.04 55.08 36.56L55.08 36.56L52.48 36.56Q52.48 37.68 53 38.74Q53.52 39.80 54.58 40.64Q55.64 41.48 57.18 41.98Q58.72 42.48 60.76 42.48L60.76 42.48Q64.44 42.48 66.30 40.86Q68.16 39.24 68.16 36.60L68.16 36.60Q68.16 34.68 67.26 33.52Q66.36 32.36 65 31.66Q63.64 30.96 62.06 30.52Q60.48 30.08 59.12 29.60Q57.76 29.12 56.86 28.44Q55.96 27.76 55.96 26.52L55.96 26.52Q55.96 26 56.16 25.42Q56.36 24.84 56.84 24.34Q57.32 23.84 58.12 23.50Q58.92 23.16 60.12 23.16L60.12 23.16Q61.32 23.16 62.20 23.50Q63.08 23.84 63.68 24.34Q64.28 24.84 64.56 25.44Q64.84 26.04 64.84 26.56L64.84 26.56Z M83.60 40.40L83.60 40.40Q82.16 40.40 80.82 39.96Q79.48 39.52 78.44 38.54Q77.40 37.56 76.78 35.94Q76.16 34.32 76.16 31.96L76.16 31.96Q76.16 29.52 76.84 27.82Q77.52 26.12 78.54 25.10Q79.56 24.08 80.80 23.62Q82.04 23.16 83.16 23.16L83.16 23.16Q85 23.16 86.36 24.12Q87.72 25.08 88.16 26.48L88.16 26.48L90.92 26.48Q90.52 25.04 89.64 24.10Q88.76 23.16 87.62 22.58Q86.48 22 85.18 21.78Q83.88 21.56 82.68 21.56L82.68 21.56Q80.16 21.56 78.24 22.38Q76.32 23.20 75 24.60Q73.68 26 73.02 27.88Q72.36 29.76 72.36 31.88L72.36 31.88Q72.36 34.12 73.08 36.06Q73.80 38 75.14 39.42Q76.48 40.84 78.36 41.66Q80.24 42.48 82.60 42.48L82.60 42.48Q85.24 42.48 87.22 41.60Q89.20 40.72 90.56 39.68L90.56 39.68L89.40 38.16Q88 39.32 86.62 39.86Q85.24 40.40 83.60 40.40Z M114.84 32.04L114.84 32.04Q114.84 34.12 114.12 36.02Q113.40 37.92 112.06 39.36Q110.72 40.80 108.82 41.64Q106.92 42.48 104.56 42.48L104.56 42.48Q102.16 42.48 100.22 41.62Q98.28 40.76 96.94 39.32Q95.60 37.88 94.86 35.98Q94.12 34.08 94.12 32.04L94.12 32.04Q94.12 29.96 94.86 28.06Q95.60 26.16 96.94 24.72Q98.28 23.28 100.22 22.42Q102.16 21.56 104.56 21.56L104.56 21.56Q106.92 21.56 108.82 22.42Q110.72 23.28 112.06 24.72Q113.40 26.16 114.12 28.06Q114.84 29.96 114.84 32.04ZM111.04 32.04L111.04 32.04Q111.04 29.24 110.44 27.50Q109.84 25.76 108.88 24.80Q107.92 23.84 106.76 23.50Q105.60 23.16 104.52 23.16L104.52 23.16Q103.44 23.16 102.28 23.50Q101.12 23.84 100.14 24.80Q99.16 25.76 98.54 27.50Q97.92 29.24 97.92 32.04L97.92 32.04Q97.92 34.80 98.54 36.54Q99.16 38.28 100.14 39.24Q101.12 40.20 102.28 40.54Q103.44 40.88 104.52 40.88L104.52 40.88Q105.60 40.88 106.76 40.54Q107.92 40.20 108.88 39.24Q109.84 38.28 110.44 36.54Q111.04 34.80 111.04 32.04Z M20.48 56L16.84 56L16.84 76.20Q16.84 77.16 16.78 78.30Q16.72 79.44 16.32 80.42Q15.92 81.40 15.10 82.06Q14.28 82.72 12.76 82.72L12.76 82.72Q11.44 82.72 10.58 82.24Q9.72 81.76 9.22 81.04Q8.72 80.32 8.50 79.50Q8.28 78.68 8.28 78.04L8.28 78.04L4.80 78.04Q4.88 81.12 6.80 82.80Q8.72 84.48 12.56 84.48L12.56 84.48Q15.32 84.48 16.92 83.66Q18.52 82.84 19.30 81.58Q20.08 80.32 20.28 78.84Q20.48 77.36 20.48 76.08L20.48 76.08L20.48 56Z M31.88 64L28.48 64L28.48 84L31.88 84L31.88 71.92Q31.88 70.28 32.26 69.14Q32.64 68 33.24 67.28Q33.84 66.56 34.56 66.24Q35.28 65.92 35.96 65.92L35.96 65.92Q36.88 65.92 37.66 66.52Q38.44 67.12 38.80 67.64L38.80 67.64L40.16 65.16Q39.80 64.68 39.30 64.36Q38.80 64.04 38.30 63.86Q37.80 63.68 37.38 63.62Q36.96 63.56 36.76 63.56L36.76 63.56Q35.08 63.56 33.96 64.48Q32.84 65.40 32.12 67.20L32.12 67.20L31.88 67.20L31.88 64Z"/></g>
</svg>
</g><g opacity="1" transform="rotate(0 136.5637 94.1402)">
<svg width="3" height="150" x="136.5637" y="94.1402" version="1.1" preserveAspectRatio="none" viewBox="0 0 3 150">
  <defs><rect x="0" y="0" width="3" height="150" rx="0px" ry="0px" id="id-tBXipXk0b1693443679848"></rect></defs><use class="companyName shapeStroke-str" style="stroke-width:0;" xlink:href="#id-tBXipXk0b1693443679848"></use>
</svg>
</g></svg></svg>